# xmcd CD database file
#
# Track frame offsets:
#	150
#	31417
#	73982
#	105823
#	142715
#	176623
#
# Disc length: 2797 seconds
#
# Revision: 0
# Processed by: cddbd v1.5.1PL0 Copyright (c) Steve Scherf et al.
# Submitted via: CDex 1.51
#
DISCID=460aeb06
DTITLE=Peter King - East 34th Street
DYEAR=1999
DGENRE=Jazz
TTITLE0=Reverse Thrust
TTITLE1=East 34th Street
TTITLE2=3/4 Peace
TTITLE3=Evans' Song
TTITLE4=Solitaire
TTITLE5=Warm Breeze
EXTD=YEAR: 1999
EXTT0=
EXTT1=
EXTT2=
EXTT3=
EXTT4=
EXTT5=
PLAYORDER=
